#!OML:ASF I:\Actors\actors\Patient Classification 1\Patient 1\Session 1\Subject1.ASF
:FULLY-SPECIFIED
:DEGREES
744
root -0.823042 17.5545 7.44899 6.69643 -7.90564 -6.7565
lowerback 1.75771 0.209114 6.51138
upperback -10.2646 1.05314 2.7773
thorax -12.0216 0.0377133 -0.73843
lowerneck -13.0084 -5.81608 -4.51673
upperneck 25.3748 -9.60609 8.3107
head 10.9722 -3.90847 2.44875
rclavicle 1.88845e-015 -1.63003e-014
rhumerus -6.06146 30.8762 -73.306
rradius 48.4469
rwrist 53.2613
rhand -33.289 -54.6692
rfingers 7.12502
rthumb -6.4932 -84.5496
lclavicle 1.88845e-015 -1.63003e-014
lhumerus 30.3329 -27.1748 78.8076
lradius 67.5677
lwrist 49.0153
lhand -17.1775 8.50279
lfingers 7.12502
lthumb 9.06405 38.288
rfemur -0.0762562 22.7319 25.9913
rtibia 0.528114
rfoot -9.80395 -15.0871
rtoes 2.39153
lfemur 8.76144 -35.3147 -16.178
ltibia -2.91217
lfoot -20.281 47.4133
ltoes 6.88477
745
root -0.819488 17.5546 7.44435 6.72404 -7.95101 -6.75651
lowerback 1.75214 0.212855 6.54908
upperback -10.2569 1.06013 2.77806
thorax -12.009 0.037834 -0.759416
lowerneck -13.0306 -5.78866 -4.46543
upperneck 25.3987 -9.57474 8.28878
head 10.9791 -3.8905 2.43645
rclavicle 5.1684e-015 5.52621e-014
rhumerus -6.05522 30.9409 -73.3486
rradius 48.5366
rwrist 53.0998
rhand -33.1913 -54.4868
rfingers 7.12502
rthumb -6.39893 -84.3702
lclavicle 5.1684e-015 5.52621e-014
lhumerus 30.2091 -27.5477 78.3676
lradius 67.9785
lwrist 49.8445
lhand -21.5352 8.6701
lfingers 7.12502
lthumb 4.85761 38.5944
rfemur -0.128747 22.8065 25.9567
rtibia 0.531634
rfoot -9.77118 -15.1224
rtoes 2.46306
lfemur 8.69321 -35.2707 -16.1504
ltibia -2.89646
lfoot -20.3471 47.3984
ltoes 7.09921
746
root -0.817738 17.555 7.44128 6.70327 -8.02075 -6.73306
lowerback 1.74636 0.223771 6.53486
upperback -10.224 1.07074 2.77503
thorax -11.9659 0.0456566 -0.756858
lowerneck -13.1404 -5.76623 -4.41254
upperneck 25.5672 -9.58488 8.33485
head 11.0653 -3.8769 2.44166
rclavicle 1.39149e-015 2.38542e-015
rhumerus -6.05526 30.9541 -73.3925
rradius 48.6275
rwrist 52.9191
rhand -33.0134 -54.1743
rfingers 7.12502
rthumb -6.22716 -84.0628
lclavicle 1.39149e-015 2.38542e-015
lhumerus 30.1221 -27.7552 78.0046
lradius 68.2046
lwrist 51.3822
lhand -23.8456 9.10282
lfingers 7.12502
lthumb 2.62646 39.0664
rfemur -0.102981 22.943 25.9391
rtibia 0.535684
rfoot -9.8475 -15.1611
rtoes 2.71238
lfemur 8.76081 -35.2797 -16.2299
ltibia -2.92102
lfoot -20.4795 47.4393
ltoes 7.30647
747
root -0.817058 17.5538 7.43997 6.67119 -8.0932 -6.69044
lowerback 1.72654 0.242141 6.47294
upperback -10.1848 1.0865 2.77726
thorax -11.9062 0.0613875 -0.722972
lowerneck -13.2083 -5.74325 -4.41288
upperneck 25.6718 -9.55514 8.3142
head 11.1147 -3.86091 2.43791
rclavicle 1.04362e-014 1.35174e-014
rhumerus -6.078 30.9491 -73.3905
rradius 48.7697
rwrist 52.8264
rhand -32.5808 -53.9782
rfingers 7.12502
rthumb -5.8095 -83.8785
lclavicle 1.04362e-014 1.35174e-014
lhumerus 30.0202 -27.8425 77.6541
lradius 68.5195
lwrist 54.3958
lhand -24.1528 9.74367
lfingers 7.12502
lthumb 2.32983 39.7107
rfemur -0.0583795 23.0202 25.8996
rtibia 0.518331
rfoot -9.89773 -15.1609
rtoes 2.90344
lfemur 8.8825 -35.3423 -16.3646
ltibia -2.9692
lfoot -20.6195 47.5476
ltoes 7.39832
748
root -0.814709 17.5519 7.43798 6.68697 -8.16226 -6.67941
lowerback 1.66485 0.270065 6.48883
upperback -10.1506 1.11642 2.76641
thorax -11.8259 0.0761141 -0.747685
lowerneck -13.2695 -5.78433 -4.37187
upperneck 25.7554 -9.62912 8.30018
head 11.1614 -3.88816 2.41421
rclavicle -3.32964e-014 3.61788e-014
rhumerus -6.06325 30.9444 -73.3422
rradius 48.8826
rwrist 52.8379
rhand -32.2724 -53.96
rfingers 7.12502
rthumb -5.51178 -83.8683
lclavicle -3.32964e-014 3.61788e-014
lhumerus 30.0002 -27.9785 77.1418
lradius 68.9686
lwrist 57.4317
lhand -23.7247 10.5619
lfingers 7.12502
lthumb 2.74325 40.524
rfemur -0.08209 23.0413 25.861
rtibia 0.495102
rfoot -9.84589 -15.1409
rtoes 2.81572
lfemur 8.94194 -35.4861 -16.4474
ltibia -3.00826
lfoot -20.7328 47.7469
ltoes 7.43387
749
root -0.811869 17.5514 7.43563 6.7175 -8.26 -6.70682
lowerback 1.61717 0.310557 6.5568
upperback -10.1281 1.16917 2.7537
thorax -11.7669 0.0961264 -0.805506
lowerneck -13.3338 -5.81959 -4.39339
upperneck 25.8211 -9.69992 8.36479
head 11.21 -3.91107 2.42984
rclavicle 1.22253e-014 4.77083e-015
rhumerus -6.00204 31.0057 -73.2641
rradius 48.9154
rwrist 52.8413
rhand -32.1122 -53.9012
rfingers 7.12502
rthumb -5.35705 -83.8135
lclavicle 1.22253e-014 4.77083e-015
lhumerus 30.0433 -28.2532 76.4562
lradius 69.4025
lwrist 58.9439
lhand -22.9371 11.3139
lfingers 7.12502
lthumb 3.50385 41.2648
rfemur -0.12421 23.0836 25.8686
rtibia 0.496937
rfoot -9.80439 -15.1064
rtoes 2.54301
lfemur 8.99905 -35.6395 -16.4962
ltibia -3.03104
lfoot -20.9512 47.9534
ltoes 7.56801
